<?xml version="1.0" standalone="no"?>
<!DOCTYPE svg PUBLIC "-//W3C//DTD SVG 20010904//EN"
 "http://www.w3.org/TR/2001/REC-SVG-20010904/DTD/svg10.dtd">
<svg version="1.0" xmlns="http://www.w3.org/2000/svg"
 width="512.000000pt" height="512.000000pt" viewBox="0 0 512.000000 512.000000"
 preserveAspectRatio="xMidYMid meet">

<g transform="translate(0.000000,512.000000) scale(0.100000,-0.100000)"
fill="#000000" stroke="none">
<path d="M2315 5109 c-800 -83 -1501 -518 -1927 -1196 -487 -774 -516 -1777
-75 -2578 200 -364 487 -676 841 -913 238 -159 600 -311 876 -366 214 -43 295
-51 530 -51 236 0 333 10 532 51 880 184 1615 842 1898 1702 92 278 125 491
125 802 0 301 -32 513 -116 775 -124 390 -330 728 -622 1024 -399 404 -893
653 -1462 737 -123 18 -478 26 -600 13z m-581 -1078 c17 -17 22 -38 26 -99 l5
-77 795 0 795 0 5 77 c6 91 24 116 87 125 35 4 45 1 74 -25 32 -28 34 -34 37
-106 l4 -76 212 0 c191 0 215 -2 256 -21 60 -27 98 -64 126 -124 l24 -50 0
-1201 0 -1200 -26 -53 c-31 -61 -96 -114 -161 -130 -58 -15 -2808 -15 -2866 0
-65 16 -130 69 -161 130 l-26 53 0 1194 c0 878 3 1205 12 1233 16 55 73 118
132 145 48 23 61 24 262 24 l212 0 4 76 c3 72 5 78 37 106 29 26 39 29 74 25
22 -3 49 -15 61 -26z"/>
<path d="M1157 3632 c-15 -16 -17 -53 -17 -315 l0 -297 1420 0 1420 0 0 298
c0 277 -1 300 -18 315 -16 15 -46 17 -210 17 l-192 0 0 -60 c0 -99 -32 -140
-107 -140 -30 0 -46 7 -66 28 -24 25 -27 36 -27 100 l0 72 -800 0 -800 0 0
-72 c0 -64 -3 -75 -27 -100 -20 -21 -36 -28 -66 -28 -75 0 -107 41 -107 140
l0 60 -193 0 c-175 0 -196 -2 -210 -18z"/>
<path d="M1140 2056 l0 -765 22 -15 c20 -14 169 -16 1398 -16 1229 0 1378 2
1398 16 l22 15 0 765 0 764 -1420 0 -1420 0 0 -764z m1886 425 c74 -45 61
-152 -20 -179 -31 -10 -188 -12 -722 -10 l-683 3 -30 29 c-50 48 -41 129 17
160 23 13 128 15 717 16 663 0 691 -1 721 -19z m504 -706 c57 -29 68 -102 24
-154 l-26 -31 -965 0 -965 0 -29 29 c-48 49 -36 125 26 159 14 8 297 11 963
12 822 0 947 -2 972 -15z"/>
</g>
</svg>
