<?xml version="1.0" standalone="no"?>
<!DOCTYPE svg PUBLIC "-//W3C//DTD SVG 20010904//EN"
 "http://www.w3.org/TR/2001/REC-SVG-20010904/DTD/svg10.dtd">
<svg version="1.0" xmlns="http://www.w3.org/2000/svg"
 width="512.000000pt" height="512.000000pt" viewBox="0 0 512.000000 512.000000"
 preserveAspectRatio="xMidYMid meet">

<g transform="translate(0.000000,512.000000) scale(0.100000,-0.100000)"
fill="#000000" stroke="none">
<path d="M2380 4954 c-160 -18 -230 -29 -330 -51 -900 -197 -1601 -880 -1820
-1775 -52 -211 -64 -322 -64 -568 0 -246 12 -357 64 -568 92 -375 262 -706
515 -1000 382 -445 916 -731 1515 -814 123 -17 478 -16 600 1 698 96 1291 459
1679 1026 207 303 338 637 397 1017 25 157 25 518 1 675 -82 521 -313 985
-671 1347 -369 374 -830 607 -1363 691 -93 15 -448 28 -523 19z m244 -969 c17
-8 313 -297 658 -643 553 -553 627 -631 633 -664 10 -55 -2 -104 -36 -143 -46
-52 -113 -67 -181 -40 -16 6 -17 -26 -20 -477 l-3 -483 -29 -57 c-35 -69 -94
-128 -166 -165 l-55 -28 -865 0 -865 0 -57 28 c-67 34 -140 108 -171 174 -22
47 -22 56 -25 531 -3 451 -4 483 -20 477 -124 -49 -241 50 -217 183 6 33 79
110 633 664 344 345 640 634 657 643 39 19 89 19 129 0z"/>
<path d="M2157 3212 l-397 -397 2 -605 3 -605 795 0 795 0 3 605 2 605 -397
397 c-219 219 -400 398 -403 398 -3 0 -184 -179 -403 -398z"/>
</g>
</svg>
